<?xml version="1.0" encoding="utf-8"?>
<!-- Generator: Adobe Illustrator 16.0.3, SVG Export Plug-In . SVG Version: 6.00 Build 0)  -->
<!DOCTYPE svg PUBLIC "-//W3C//DTD SVG 1.1//EN" "http://www.w3.org/Graphics/SVG/1.1/DTD/svg11.dtd">
<svg version="1.1" id="Layer_1" xmlns="http://www.w3.org/2000/svg" xmlns:xlink="http://www.w3.org/1999/xlink" x="0px" y="0px"
	 width="763px" height="763px" viewBox="0 0 763 763" enable-background="new 0 0 763 763" xml:space="preserve">
<g>
	<defs>
		<rect id="SVGID_1_" width="763" height="763"/>
	</defs>
	<clipPath id="SVGID_2_">
		<use xlink:href="#SVGID_1_"  overflow="visible"/>
	</clipPath>
	<g clip-path="url(#SVGID_2_)">
		<path fill="#FFFFFF" d="M-19.5-14.5v798h798v-798H-19.5z"/>
		<path fill="#333333" d="M188.105,347.686v67.249l50.307-33.677L188.105,347.686z"/>
		<path fill="#333333" d="M361.616,298.843v-93.606L204.212,310.138l70.283,46.96L361.616,298.843z"/>
		<path fill="#333333" d="M559.181,310.138L401.777,205.237v93.606l87.018,58.255L559.181,310.138z"/>
		<path fill="#333333" d="M204.212,452.482l157.404,104.9v-93.711l-87.121-58.254L204.212,452.482z"/>
		<path fill="#333333" d="M401.777,463.672v93.711l157.403-104.9l-70.386-47.064L401.777,463.672z"/>
		<path fill="#333333" d="M381.695,333.775l-71.013,47.483l71.013,47.589l71.016-47.589L381.695,333.775z"/>
		<path fill="#333333" d="M615.345,452.482c0,0.941,0,1.778-0.104,2.613c-0.106,0.314-0.106,0.629-0.21,0.942c-0.105,0.522-0.209,1.046-0.313,1.673
			c-0.106,0.312-0.211,0.626-0.316,0.941c-0.208,0.522-0.313,0.94-0.523,1.463c-0.104,0.315-0.313,0.63-0.417,0.944
			c-0.313,0.522-0.522,0.939-0.732,1.358c-0.209,0.314-0.418,0.627-0.523,0.941c-0.312,0.418-0.626,0.836-0.939,1.254
			c-0.209,0.314-0.418,0.522-0.629,0.838c-0.312,0.312-0.627,0.73-1.044,1.046c-0.21,0.312-0.524,0.522-0.733,0.835
			c-0.418,0.314-0.835,0.627-1.149,0.94c-0.313,0.211-0.63,0.421-0.942,0.734c-0.104,0-0.209,0.105-0.313,0.21L392.783,611.662
			c-3.349,2.197-7.218,3.349-11.088,3.349c-3.868,0-7.739-1.151-11.189-3.349L156.938,469.217c-0.104-0.104-0.209-0.21-0.314-0.21
			c-0.313-0.313-0.627-0.523-0.941-0.734c-0.417-0.313-0.731-0.626-1.149-0.94c-0.314-0.312-0.524-0.523-0.838-0.835
			c-0.313-0.315-0.627-0.733-0.941-1.046c-0.209-0.315-0.522-0.523-0.732-0.838c-0.313-0.418-0.523-0.836-0.836-1.254
			c-0.209-0.314-0.418-0.627-0.522-0.941c-0.314-0.419-0.523-0.836-0.733-1.358c-0.104-0.314-0.313-0.629-0.418-0.944
			c-0.208-0.522-0.417-0.94-0.522-1.463c-0.105-0.315-0.21-0.629-0.314-0.941c-0.104-0.627-0.209-1.15-0.313-1.673
			c-0.104-0.313-0.209-0.628-0.209-0.942c-0.104-0.835-0.208-1.672-0.208-2.613V310.138c0-0.941,0.104-1.778,0.208-2.719
			c0-0.209,0.105-0.524,0.209-0.837c0.104-0.522,0.209-1.15,0.313-1.673c0.104-0.313,0.209-0.628,0.314-0.941
			c0.104-0.522,0.313-1.045,0.522-1.464c0.105-0.314,0.314-0.732,0.418-1.045c0.21-0.418,0.419-0.837,0.733-1.255
			c0.104-0.313,0.313-0.628,0.522-0.941c0.313-0.419,0.523-0.838,0.836-1.256c0.209-0.313,0.523-0.627,0.732-0.836
			c0.313-0.418,0.627-0.732,0.941-1.15c0.313-0.208,0.523-0.523,0.838-0.732c0.418-0.314,0.732-0.628,1.149-0.943
			c0.314-0.313,0.628-0.522,0.941-0.731c0.104-0.104,0.209-0.209,0.314-0.209l213.567-142.447c6.799-4.499,15.583-4.499,22.277,0
			l213.671,142.447c0.104,0,0.209,0.105,0.313,0.209c0.312,0.208,0.629,0.418,0.942,0.731c0.314,0.314,0.731,0.629,1.149,0.943
			c0.209,0.208,0.523,0.523,0.733,0.732c0.417,0.418,0.731,0.732,1.044,1.15c0.211,0.209,0.42,0.522,0.629,0.836
			c0.313,0.418,0.627,0.837,0.939,1.256c0.105,0.313,0.314,0.627,0.523,0.941c0.21,0.418,0.419,0.836,0.732,1.255
			c0.104,0.313,0.312,0.731,0.417,1.045c0.21,0.419,0.315,0.942,0.523,1.464c0.105,0.313,0.21,0.628,0.316,0.941
			c0.104,0.522,0.208,1.15,0.313,1.673c0.104,0.313,0.104,0.628,0.21,0.837c0.104,0.941,0.104,1.777,0.104,2.719V452.482z
			 M381.695,3.28C172.94,3.28,3.718,172.502,3.718,381.258c0,208.757,169.222,377.978,377.977,377.978
			c208.757,0,377.979-169.221,377.979-377.978C759.675,172.502,590.452,3.28,381.695,3.28z"/>
		<path fill="#333333" d="M575.181,414.935v-67.249l-50.2,33.572L575.181,414.935z"/>
	</g>
</g>
</svg>
