<?xml version="1.0" encoding="utf-8"?>
<!-- Generator: Adobe Illustrator 16.0.3, SVG Export Plug-In . SVG Version: 6.00 Build 0)  -->
<!DOCTYPE svg PUBLIC "-//W3C//DTD SVG 1.1//EN" "http://www.w3.org/Graphics/SVG/1.1/DTD/svg11.dtd">
<svg version="1.1" id="Layer_1" xmlns="http://www.w3.org/2000/svg" xmlns:xlink="http://www.w3.org/1999/xlink" x="0px" y="0px"
	 width="24px" height="24px" viewBox="0 0 24 24" enable-background="new 0 0 24 24" xml:space="preserve">
<g id="icon">
	<circle fill="#333333" cx="12" cy="12" r="11.907"/>
	<path fill="#FFFFFF" d="M17.169,8.146c0,0-1.474-1.153-3.214-1.285l-0.156,0.313c1.573,0.385,2.295,0.937,3.049,1.614
		c-1.3-0.664-2.583-1.285-4.82-1.285c-2.237,0-3.521,0.621-4.82,1.285c0.754-0.677,1.612-1.29,3.049-1.614l-0.157-0.313
		C8.273,7.033,6.886,8.146,6.886,8.146s-1.646,2.386-1.928,7.07c1.659,1.913,4.177,1.929,4.177,1.929l0.527-0.703
		c-0.895-0.312-1.904-0.865-2.776-1.869c1.041,0.788,2.611,1.607,5.142,1.607c2.531,0,4.101-0.819,5.142-1.607
		c-0.873,1.004-1.883,1.558-2.776,1.869l0.527,0.703c0,0,2.518-0.016,4.177-1.929C18.813,10.532,17.169,8.146,17.169,8.146z
		 M9.938,13.931c-0.621,0-1.125-0.575-1.125-1.285s0.504-1.286,1.125-1.286c0.622,0,1.125,0.576,1.125,1.286
		S10.56,13.931,9.938,13.931z M14.116,13.931c-0.621,0-1.125-0.575-1.125-1.285s0.504-1.286,1.125-1.286
		c0.622,0,1.124,0.576,1.124,1.286S14.737,13.931,14.116,13.931z"/>
</g>
</svg>
